<mxfile host="app.diagrams.net" modified="2024-06-26T18:42:19.716Z" agent="Mozilla/5.0 (Windows NT 10.0; Win64; x64) AppleWebKit/537.36 (KHTML, like Gecko) Chrome/126.0.0.0 Safari/537.36" etag="shEdtYG3_KLJRPx5TP4N" version="24.6.3" type="device" pages="2">
  <diagram name="Página-1" id="I3CLivbpcBwlx8p8rUmH">
    <mxGraphModel dx="880" dy="506" grid="1" gridSize="10" guides="1" tooltips="1" connect="1" arrows="1" fold="1" page="1" pageScale="1" pageWidth="827" pageHeight="1169" math="0" shadow="0">
      <root>
        <mxCell id="0" />
        <mxCell id="1" parent="0" />
        <mxCell id="h4cOqLWfRs5D95jNDOQz-2" style="edgeStyle=orthogonalEdgeStyle;rounded=0;orthogonalLoop=1;jettySize=auto;html=1;" edge="1" parent="1" source="h4cOqLWfRs5D95jNDOQz-1">
          <mxGeometry relative="1" as="geometry">
            <mxPoint x="397" y="80" as="targetPoint" />
          </mxGeometry>
        </mxCell>
        <mxCell id="h4cOqLWfRs5D95jNDOQz-1" value="INÍCIO" style="rounded=1;whiteSpace=wrap;html=1;" vertex="1" parent="1">
          <mxGeometry x="354" width="86" height="40" as="geometry" />
        </mxCell>
        <mxCell id="h4cOqLWfRs5D95jNDOQz-8" style="edgeStyle=orthogonalEdgeStyle;rounded=0;orthogonalLoop=1;jettySize=auto;html=1;" edge="1" parent="1">
          <mxGeometry relative="1" as="geometry">
            <mxPoint x="130" y="190" as="targetPoint" />
            <mxPoint x="260" y="120" as="sourcePoint" />
            <Array as="points">
              <mxPoint x="130" y="120" />
            </Array>
          </mxGeometry>
        </mxCell>
        <mxCell id="h4cOqLWfRs5D95jNDOQz-12" value="SALDO &amp;gt;= 900" style="edgeLabel;html=1;align=center;verticalAlign=middle;resizable=0;points=[];" vertex="1" connectable="0" parent="h4cOqLWfRs5D95jNDOQz-8">
          <mxGeometry x="-0.4558" y="1" relative="1" as="geometry">
            <mxPoint as="offset" />
          </mxGeometry>
        </mxCell>
        <mxCell id="h4cOqLWfRs5D95jNDOQz-10" style="edgeStyle=orthogonalEdgeStyle;rounded=0;orthogonalLoop=1;jettySize=auto;html=1;" edge="1" parent="1" source="h4cOqLWfRs5D95jNDOQz-4" target="h4cOqLWfRs5D95jNDOQz-11">
          <mxGeometry relative="1" as="geometry">
            <mxPoint x="600" y="210" as="targetPoint" />
            <Array as="points">
              <mxPoint x="660" y="120" />
            </Array>
          </mxGeometry>
        </mxCell>
        <mxCell id="h4cOqLWfRs5D95jNDOQz-13" value="SALDO &amp;lt; 900" style="edgeLabel;html=1;align=center;verticalAlign=middle;resizable=0;points=[];" vertex="1" connectable="0" parent="h4cOqLWfRs5D95jNDOQz-10">
          <mxGeometry x="-0.4126" y="1" relative="1" as="geometry">
            <mxPoint as="offset" />
          </mxGeometry>
        </mxCell>
        <mxCell id="h4cOqLWfRs5D95jNDOQz-4" value="Tenho saldo para fazer a formação?" style="rhombus;whiteSpace=wrap;html=1;" vertex="1" parent="1">
          <mxGeometry x="267" y="80" width="260" height="80" as="geometry" />
        </mxCell>
        <mxCell id="h4cOqLWfRs5D95jNDOQz-19" style="edgeStyle=orthogonalEdgeStyle;rounded=0;orthogonalLoop=1;jettySize=auto;html=1;" edge="1" parent="1" source="h4cOqLWfRs5D95jNDOQz-9" target="h4cOqLWfRs5D95jNDOQz-14">
          <mxGeometry relative="1" as="geometry" />
        </mxCell>
        <mxCell id="h4cOqLWfRs5D95jNDOQz-9" value="Procura uma escola de condução." style="rounded=0;whiteSpace=wrap;html=1;" vertex="1" parent="1">
          <mxGeometry x="70" y="190" width="120" height="60" as="geometry" />
        </mxCell>
        <mxCell id="h4cOqLWfRs5D95jNDOQz-17" style="edgeStyle=orthogonalEdgeStyle;rounded=0;orthogonalLoop=1;jettySize=auto;html=1;entryX=1;entryY=0.5;entryDx=0;entryDy=0;" edge="1" parent="1" source="h4cOqLWfRs5D95jNDOQz-11" target="h4cOqLWfRs5D95jNDOQz-9">
          <mxGeometry relative="1" as="geometry" />
        </mxCell>
        <mxCell id="h4cOqLWfRs5D95jNDOQz-11" value="Solicitar empréstimo." style="rounded=0;whiteSpace=wrap;html=1;" vertex="1" parent="1">
          <mxGeometry x="600" y="190" width="120" height="60" as="geometry" />
        </mxCell>
        <mxCell id="h4cOqLWfRs5D95jNDOQz-20" style="edgeStyle=orthogonalEdgeStyle;rounded=0;orthogonalLoop=1;jettySize=auto;html=1;" edge="1" parent="1" source="h4cOqLWfRs5D95jNDOQz-14" target="h4cOqLWfRs5D95jNDOQz-21">
          <mxGeometry relative="1" as="geometry">
            <mxPoint x="270" y="380" as="targetPoint" />
          </mxGeometry>
        </mxCell>
        <mxCell id="h4cOqLWfRs5D95jNDOQz-14" value="Começar os estudos." style="rounded=0;whiteSpace=wrap;html=1;" vertex="1" parent="1">
          <mxGeometry x="70" y="350" width="120" height="60" as="geometry" />
        </mxCell>
        <mxCell id="h4cOqLWfRs5D95jNDOQz-22" style="edgeStyle=orthogonalEdgeStyle;rounded=0;orthogonalLoop=1;jettySize=auto;html=1;" edge="1" parent="1" source="h4cOqLWfRs5D95jNDOQz-21">
          <mxGeometry relative="1" as="geometry">
            <mxPoint x="414" y="380" as="targetPoint" />
          </mxGeometry>
        </mxCell>
        <mxCell id="h4cOqLWfRs5D95jNDOQz-21" value="Realizar os exames." style="rounded=0;whiteSpace=wrap;html=1;" vertex="1" parent="1">
          <mxGeometry x="250" y="350" width="120" height="60" as="geometry" />
        </mxCell>
        <mxCell id="h4cOqLWfRs5D95jNDOQz-25" style="edgeStyle=orthogonalEdgeStyle;rounded=0;orthogonalLoop=1;jettySize=auto;html=1;exitX=0.5;exitY=0;exitDx=0;exitDy=0;" edge="1" parent="1" source="h4cOqLWfRs5D95jNDOQz-24" target="h4cOqLWfRs5D95jNDOQz-26">
          <mxGeometry relative="1" as="geometry">
            <mxPoint x="630" y="290" as="targetPoint" />
            <Array as="points">
              <mxPoint x="460" y="320" />
            </Array>
          </mxGeometry>
        </mxCell>
        <mxCell id="h4cOqLWfRs5D95jNDOQz-27" value="False" style="edgeLabel;html=1;align=center;verticalAlign=middle;resizable=0;points=[];" vertex="1" connectable="0" parent="h4cOqLWfRs5D95jNDOQz-25">
          <mxGeometry x="-0.1143" y="1" relative="1" as="geometry">
            <mxPoint as="offset" />
          </mxGeometry>
        </mxCell>
        <mxCell id="h4cOqLWfRs5D95jNDOQz-28" style="edgeStyle=orthogonalEdgeStyle;rounded=0;orthogonalLoop=1;jettySize=auto;html=1;" edge="1" parent="1" source="h4cOqLWfRs5D95jNDOQz-24" target="h4cOqLWfRs5D95jNDOQz-29">
          <mxGeometry relative="1" as="geometry">
            <mxPoint x="600" y="451" as="targetPoint" />
            <Array as="points">
              <mxPoint x="460" y="440" />
              <mxPoint x="601" y="440" />
            </Array>
          </mxGeometry>
        </mxCell>
        <mxCell id="h4cOqLWfRs5D95jNDOQz-30" value="True" style="edgeLabel;html=1;align=center;verticalAlign=middle;resizable=0;points=[];" vertex="1" connectable="0" parent="h4cOqLWfRs5D95jNDOQz-28">
          <mxGeometry x="-0.0286" y="-1" relative="1" as="geometry">
            <mxPoint as="offset" />
          </mxGeometry>
        </mxCell>
        <mxCell id="h4cOqLWfRs5D95jNDOQz-24" value="Passou?" style="rhombus;whiteSpace=wrap;html=1;" vertex="1" parent="1">
          <mxGeometry x="420" y="340" width="80" height="80" as="geometry" />
        </mxCell>
        <mxCell id="h4cOqLWfRs5D95jNDOQz-36" style="edgeStyle=orthogonalEdgeStyle;rounded=0;orthogonalLoop=1;jettySize=auto;html=1;entryX=0.5;entryY=0;entryDx=0;entryDy=0;" edge="1" parent="1" source="h4cOqLWfRs5D95jNDOQz-26" target="h4cOqLWfRs5D95jNDOQz-32">
          <mxGeometry relative="1" as="geometry" />
        </mxCell>
        <mxCell id="h4cOqLWfRs5D95jNDOQz-26" value="Print &quot;Se esforce mais!&quot;" style="rounded=0;whiteSpace=wrap;html=1;" vertex="1" parent="1">
          <mxGeometry x="580" y="290" width="120" height="60" as="geometry" />
        </mxCell>
        <mxCell id="h4cOqLWfRs5D95jNDOQz-37" style="edgeStyle=orthogonalEdgeStyle;rounded=0;orthogonalLoop=1;jettySize=auto;html=1;" edge="1" parent="1" source="h4cOqLWfRs5D95jNDOQz-29">
          <mxGeometry relative="1" as="geometry">
            <mxPoint x="860" y="400" as="targetPoint" />
          </mxGeometry>
        </mxCell>
        <mxCell id="h4cOqLWfRs5D95jNDOQz-29" value="PARABÉNS!" style="rounded=0;whiteSpace=wrap;html=1;" vertex="1" parent="1">
          <mxGeometry x="580" y="410" width="120" height="60" as="geometry" />
        </mxCell>
        <mxCell id="h4cOqLWfRs5D95jNDOQz-32" value="FIM" style="rounded=1;whiteSpace=wrap;html=1;" vertex="1" parent="1">
          <mxGeometry x="820" y="365" width="70" height="30" as="geometry" />
        </mxCell>
      </root>
    </mxGraphModel>
  </diagram>
  <diagram id="R3QOLJu5DMkeIaQs7Q2s" name="Página-2">
    <mxGraphModel dx="733" dy="422" grid="1" gridSize="10" guides="1" tooltips="1" connect="1" arrows="1" fold="1" page="1" pageScale="1" pageWidth="827" pageHeight="1169" math="0" shadow="0">
      <root>
        <mxCell id="0" />
        <mxCell id="1" parent="0" />
        <mxCell id="_tywXUkaUAYZo52_i_bX-2" style="edgeStyle=orthogonalEdgeStyle;rounded=0;orthogonalLoop=1;jettySize=auto;html=1;" edge="1" parent="1" source="_tywXUkaUAYZo52_i_bX-1">
          <mxGeometry relative="1" as="geometry">
            <mxPoint x="414" y="90" as="targetPoint" />
          </mxGeometry>
        </mxCell>
        <mxCell id="_tywXUkaUAYZo52_i_bX-1" value="INÍCIO" style="rounded=1;whiteSpace=wrap;html=1;" vertex="1" parent="1">
          <mxGeometry x="371" width="86" height="30" as="geometry" />
        </mxCell>
        <mxCell id="_tywXUkaUAYZo52_i_bX-6" style="edgeStyle=orthogonalEdgeStyle;rounded=0;orthogonalLoop=1;jettySize=auto;html=1;" edge="1" parent="1" source="_tywXUkaUAYZo52_i_bX-5" target="_tywXUkaUAYZo52_i_bX-7">
          <mxGeometry relative="1" as="geometry">
            <mxPoint x="140" y="200" as="targetPoint" />
          </mxGeometry>
        </mxCell>
        <mxCell id="fRCC1oFCYJZd2tuKGRjM-1" value="ºC &amp;gt;= 20ºC" style="edgeLabel;html=1;align=center;verticalAlign=middle;resizable=0;points=[];" vertex="1" connectable="0" parent="_tywXUkaUAYZo52_i_bX-6">
          <mxGeometry x="-0.4745" y="1" relative="1" as="geometry">
            <mxPoint as="offset" />
          </mxGeometry>
        </mxCell>
        <mxCell id="_tywXUkaUAYZo52_i_bX-10" style="edgeStyle=orthogonalEdgeStyle;rounded=0;orthogonalLoop=1;jettySize=auto;html=1;" edge="1" parent="1" source="_tywXUkaUAYZo52_i_bX-5" target="_tywXUkaUAYZo52_i_bX-9">
          <mxGeometry relative="1" as="geometry" />
        </mxCell>
        <mxCell id="fRCC1oFCYJZd2tuKGRjM-2" value="ºC &amp;lt; 20ºC e ºC &amp;gt;= 14ºC" style="edgeLabel;html=1;align=center;verticalAlign=middle;resizable=0;points=[];" vertex="1" connectable="0" parent="_tywXUkaUAYZo52_i_bX-10">
          <mxGeometry x="-0.125" relative="1" as="geometry">
            <mxPoint as="offset" />
          </mxGeometry>
        </mxCell>
        <mxCell id="_tywXUkaUAYZo52_i_bX-11" style="edgeStyle=orthogonalEdgeStyle;rounded=0;orthogonalLoop=1;jettySize=auto;html=1;exitX=1;exitY=0.5;exitDx=0;exitDy=0;" edge="1" parent="1" source="_tywXUkaUAYZo52_i_bX-5" target="_tywXUkaUAYZo52_i_bX-12">
          <mxGeometry relative="1" as="geometry">
            <mxPoint x="690" y="240" as="targetPoint" />
          </mxGeometry>
        </mxCell>
        <mxCell id="fRCC1oFCYJZd2tuKGRjM-3" value="ºC &amp;lt; 14ºC" style="edgeLabel;html=1;align=center;verticalAlign=middle;resizable=0;points=[];" vertex="1" connectable="0" parent="_tywXUkaUAYZo52_i_bX-11">
          <mxGeometry x="-0.3697" y="2" relative="1" as="geometry">
            <mxPoint as="offset" />
          </mxGeometry>
        </mxCell>
        <mxCell id="_tywXUkaUAYZo52_i_bX-5" value="Qual tipo de roupa devo escolher?" style="rhombus;whiteSpace=wrap;html=1;" vertex="1" parent="1">
          <mxGeometry x="284" y="90" width="260" height="80" as="geometry" />
        </mxCell>
        <mxCell id="fRCC1oFCYJZd2tuKGRjM-8" style="edgeStyle=orthogonalEdgeStyle;rounded=0;orthogonalLoop=1;jettySize=auto;html=1;entryX=0.5;entryY=0;entryDx=0;entryDy=0;" edge="1" parent="1" source="_tywXUkaUAYZo52_i_bX-7" target="fRCC1oFCYJZd2tuKGRjM-4">
          <mxGeometry relative="1" as="geometry">
            <Array as="points">
              <mxPoint x="130" y="390" />
              <mxPoint x="414" y="390" />
            </Array>
          </mxGeometry>
        </mxCell>
        <mxCell id="_tywXUkaUAYZo52_i_bX-7" value="Camiseta e short." style="rounded=0;whiteSpace=wrap;html=1;" vertex="1" parent="1">
          <mxGeometry x="70" y="250" width="120" height="60" as="geometry" />
        </mxCell>
        <mxCell id="fRCC1oFCYJZd2tuKGRjM-5" style="edgeStyle=orthogonalEdgeStyle;rounded=0;orthogonalLoop=1;jettySize=auto;html=1;entryX=0.5;entryY=0;entryDx=0;entryDy=0;" edge="1" parent="1" source="_tywXUkaUAYZo52_i_bX-9" target="fRCC1oFCYJZd2tuKGRjM-4">
          <mxGeometry relative="1" as="geometry" />
        </mxCell>
        <mxCell id="_tywXUkaUAYZo52_i_bX-9" value="Camisa manga comprida e calça." style="rounded=0;whiteSpace=wrap;html=1;" vertex="1" parent="1">
          <mxGeometry x="354" y="250" width="120" height="60" as="geometry" />
        </mxCell>
        <mxCell id="fRCC1oFCYJZd2tuKGRjM-9" style="edgeStyle=orthogonalEdgeStyle;rounded=0;orthogonalLoop=1;jettySize=auto;html=1;entryX=0.5;entryY=0;entryDx=0;entryDy=0;" edge="1" parent="1" source="_tywXUkaUAYZo52_i_bX-12" target="fRCC1oFCYJZd2tuKGRjM-4">
          <mxGeometry relative="1" as="geometry">
            <Array as="points">
              <mxPoint x="690" y="390" />
              <mxPoint x="414" y="390" />
            </Array>
          </mxGeometry>
        </mxCell>
        <mxCell id="_tywXUkaUAYZo52_i_bX-12" value="Camisa com casaco e calça." style="rounded=0;whiteSpace=wrap;html=1;" vertex="1" parent="1">
          <mxGeometry x="630" y="250" width="120" height="60" as="geometry" />
        </mxCell>
        <mxCell id="fRCC1oFCYJZd2tuKGRjM-10" style="edgeStyle=orthogonalEdgeStyle;rounded=0;orthogonalLoop=1;jettySize=auto;html=1;" edge="1" parent="1" source="fRCC1oFCYJZd2tuKGRjM-4" target="fRCC1oFCYJZd2tuKGRjM-11">
          <mxGeometry relative="1" as="geometry">
            <mxPoint x="220" y="590" as="targetPoint" />
          </mxGeometry>
        </mxCell>
        <mxCell id="fRCC1oFCYJZd2tuKGRjM-16" value="&lt;span style=&quot;font-size: 12px; text-wrap: wrap; background-color: rgb(251, 251, 251);&quot;&gt;Camiseta e short.&lt;/span&gt;" style="edgeLabel;html=1;align=center;verticalAlign=middle;resizable=0;points=[];" vertex="1" connectable="0" parent="fRCC1oFCYJZd2tuKGRjM-10">
          <mxGeometry x="-0.4268" y="3" relative="1" as="geometry">
            <mxPoint as="offset" />
          </mxGeometry>
        </mxCell>
        <mxCell id="fRCC1oFCYJZd2tuKGRjM-12" style="edgeStyle=orthogonalEdgeStyle;rounded=0;orthogonalLoop=1;jettySize=auto;html=1;" edge="1" parent="1" source="fRCC1oFCYJZd2tuKGRjM-4" target="fRCC1oFCYJZd2tuKGRjM-13">
          <mxGeometry relative="1" as="geometry">
            <mxPoint x="414" y="610" as="targetPoint" />
          </mxGeometry>
        </mxCell>
        <mxCell id="fRCC1oFCYJZd2tuKGRjM-17" value="&lt;span style=&quot;font-size: 12px; text-wrap: wrap; background-color: rgb(251, 251, 251);&quot;&gt;Camisa manga comprida e calça.&lt;/span&gt;" style="edgeLabel;html=1;align=center;verticalAlign=middle;resizable=0;points=[];" vertex="1" connectable="0" parent="fRCC1oFCYJZd2tuKGRjM-12">
          <mxGeometry x="-0.0171" y="-2" relative="1" as="geometry">
            <mxPoint as="offset" />
          </mxGeometry>
        </mxCell>
        <mxCell id="fRCC1oFCYJZd2tuKGRjM-14" style="edgeStyle=orthogonalEdgeStyle;rounded=0;orthogonalLoop=1;jettySize=auto;html=1;" edge="1" parent="1" source="fRCC1oFCYJZd2tuKGRjM-4" target="fRCC1oFCYJZd2tuKGRjM-15">
          <mxGeometry relative="1" as="geometry">
            <mxPoint x="690" y="610" as="targetPoint" />
          </mxGeometry>
        </mxCell>
        <mxCell id="fRCC1oFCYJZd2tuKGRjM-18" value="&lt;span style=&quot;font-size: 12px; text-wrap: wrap; background-color: rgb(251, 251, 251);&quot;&gt;Camisa com casaco e calça.&lt;/span&gt;" style="edgeLabel;html=1;align=center;verticalAlign=middle;resizable=0;points=[];" vertex="1" connectable="0" parent="fRCC1oFCYJZd2tuKGRjM-14">
          <mxGeometry x="0.575" y="2" relative="1" as="geometry">
            <mxPoint as="offset" />
          </mxGeometry>
        </mxCell>
        <mxCell id="fRCC1oFCYJZd2tuKGRjM-4" value="Para onde devo ir?" style="rhombus;whiteSpace=wrap;html=1;" vertex="1" parent="1">
          <mxGeometry x="314" y="450" width="200" height="80" as="geometry" />
        </mxCell>
        <mxCell id="fRCC1oFCYJZd2tuKGRjM-20" style="edgeStyle=orthogonalEdgeStyle;rounded=0;orthogonalLoop=1;jettySize=auto;html=1;entryX=0.5;entryY=0;entryDx=0;entryDy=0;" edge="1" parent="1" source="fRCC1oFCYJZd2tuKGRjM-11" target="fRCC1oFCYJZd2tuKGRjM-19">
          <mxGeometry relative="1" as="geometry">
            <Array as="points">
              <mxPoint x="130" y="710" />
              <mxPoint x="414" y="710" />
            </Array>
          </mxGeometry>
        </mxCell>
        <mxCell id="fRCC1oFCYJZd2tuKGRjM-11" value="PRAIA" style="rounded=0;whiteSpace=wrap;html=1;" vertex="1" parent="1">
          <mxGeometry x="90" y="620" width="80" height="30" as="geometry" />
        </mxCell>
        <mxCell id="fRCC1oFCYJZd2tuKGRjM-21" style="edgeStyle=orthogonalEdgeStyle;rounded=0;orthogonalLoop=1;jettySize=auto;html=1;entryX=0.5;entryY=0;entryDx=0;entryDy=0;" edge="1" parent="1" source="fRCC1oFCYJZd2tuKGRjM-13" target="fRCC1oFCYJZd2tuKGRjM-19">
          <mxGeometry relative="1" as="geometry" />
        </mxCell>
        <mxCell id="fRCC1oFCYJZd2tuKGRjM-13" value="SHOPPING" style="rounded=0;whiteSpace=wrap;html=1;" vertex="1" parent="1">
          <mxGeometry x="371" y="617.5" width="86" height="35" as="geometry" />
        </mxCell>
        <mxCell id="fRCC1oFCYJZd2tuKGRjM-23" style="edgeStyle=orthogonalEdgeStyle;rounded=0;orthogonalLoop=1;jettySize=auto;html=1;entryX=0.5;entryY=0;entryDx=0;entryDy=0;" edge="1" parent="1" source="fRCC1oFCYJZd2tuKGRjM-15" target="fRCC1oFCYJZd2tuKGRjM-19">
          <mxGeometry relative="1" as="geometry">
            <Array as="points">
              <mxPoint x="690" y="710" />
              <mxPoint x="414" y="710" />
            </Array>
          </mxGeometry>
        </mxCell>
        <mxCell id="fRCC1oFCYJZd2tuKGRjM-15" value="Ficar em casa." style="rounded=0;whiteSpace=wrap;html=1;" vertex="1" parent="1">
          <mxGeometry x="645" y="617.5" width="90" height="35" as="geometry" />
        </mxCell>
        <mxCell id="fRCC1oFCYJZd2tuKGRjM-19" value="FIM" style="rounded=1;whiteSpace=wrap;html=1;" vertex="1" parent="1">
          <mxGeometry x="371" y="790" width="86" height="30" as="geometry" />
        </mxCell>
      </root>
    </mxGraphModel>
  </diagram>
</mxfile>
